<svg xmlns="http://www.w3.org/2000/svg" viewBox="0 0 64 64" width="64" height="64">
  <circle cx="32" cy="32" r="32" fill="#2c0e05"/>
  
  <path d="M32 60c-15 0-24-12-24-28C8 16 18 4 32 4s24 12 24 28c0 16-9 28-24 28z" fill="#e6ac87"/>

  <path d="M14 20c-2-4 2-12 6-14 3 0 6 4 8 2 4-2 8-4 12-2 5 2 8 10 8 14 0 6-6 10-14 10s-16-4-20-10z" fill="#522f1c"/>
  
  <rect x="4" y="20" width="10" height="24" rx="2" fill="#1a1a1a"/>
  <rect x="50" y="20" width="10" height="24" rx="2" fill="#1a1a1a"/>
  
  <rect x="6" y="24" width="6" height="16" rx="1" fill="#ffaa00"/>
  <rect x="52" y="24" width="6" height="16" rx="1" fill="#ffaa00"/>
  
  <ellipse cx="24" cy="34" rx="4" ry="3" fill="#fff"/>
  <ellipse cx="40" cy="34" rx="4" ry="3" fill="#fff"/>
  <ellipse cx="24" cy="34" rx="2" ry="2" fill="#ff6600"/>
  <ellipse cx="40" cy="34" rx="2" ry="2" fill="#ff6600"/>
  
  <path d="M30 52c1 1 3 1 4 0" stroke="#522f1c" stroke-width="2" fill="none"/>

  <path d="M18 64h28c2-8-4-10-14-10s-16 2-14 10z" fill="#1a1a1a"/>
</svg>